<svg width="98" height="24" fill="none" xmlns="http://www.w3.org/2000/svg"><path d="M17.98 5.384c.124.889.248 2.18.372 3.875l.062 1.612c0 2.997.393 5.673 1.178 8.029.103.33.155.754.155 1.271 0 .29-.02.682-.062 1.178-.02.33-.145.589-.372.775-.227.207-.517.31-.868.31-.041 0-.155-.02-.341-.062-.517-.124-.91-.351-1.178-.682-.269-.351-.403-.775-.403-1.271 0-.165.01-.29.031-.372v-.527c0-.372-.02-.713-.062-1.023a65.238 65.238 0 0 0-.775-3.224c-.124-.558-.382-.837-.775-.837-.145 0-.31.031-.496.093-.64.186-1.209.362-1.705.527-.475.165-.899.3-1.271.403l-1.488.434c-.847.248-1.633.444-2.356.589-.765.165-1.323.589-1.674 1.271-.33.62-.806 1.457-1.426 2.511-.393.703-.91 1.054-1.55 1.054-.31 0-.62-.072-.93-.217a2.706 2.706 0 0 1-.744-.62c-.31-.351-.465-.692-.465-1.023 0-.227.062-.465.186-.713l2.139-4.34C5.518 9.61 6.923 6.738 7.378 5.787 8.68 3.266 10.447 1.53 12.679.579a3.343 3.343 0 0 1 1.457-.341 3.1 3.1 0 0 1 1.705.496c.537.31.95.754 1.24 1.333.413.847.713 1.953.899 3.317ZM7.967 13.227c2.831-.496 5.239-.899 7.223-1.209-.041-1.984-.103-3.544-.186-4.681a24.911 24.911 0 0 0-.434-3.472c-1.095.124-1.922.661-2.48 1.612A81.687 81.687 0 0 0 9.3 10.22c-.145.269-.413.868-.806 1.798l-.527 1.209Zm22.095-6.51c-.083-.744.02-1.416.31-2.015a7.33 7.33 0 0 1 1.302-1.798l1.89-.155c.29-.041.465-.062.528-.062.31 0 .702.382 1.178 1.147.04.124.082.279.123.465.042.165.104.3.187.403l3.596 4.991a44.02 44.02 0 0 1 1.58 2.139l.527-1.705c.662-2.17 1.261-3.927 1.798-5.27a18.374 18.374 0 0 1 2.17-3.875l1.489.217c.392.31.526.723.402 1.24-.186.744-.382 1.302-.589 1.674a32.019 32.019 0 0 0-1.24 3.844c-.33 1.281-.702 2.904-1.116 4.867-.062.269-.144.672-.248 1.209-.165.827-.485 1.447-.96 1.86-.476.393-1.127.61-1.953.651-.827.041-1.54-.3-2.14-1.023a67.075 67.075 0 0 1-2.325-3.007l-.62-.837c-.557-.744-1.405-1.84-2.541-3.286l-.28 1.333c-.31 1.488-.495 2.656-.558 3.503l-.186 3.751c-.02.413-.04.94-.062 1.581-.02.62-.061 1.354-.123 2.201a2.444 2.444 0 0 1-.652 1.612 2.957 2.957 0 0 1-1.488.93c-.31.083-.692 0-1.146-.248-.434-.227-.693-.496-.775-.806-.145-.537-.218-1.013-.218-1.426 0-.372.052-.703.155-.992.186-.496.31-1.281.372-2.356.042-.661.093-1.157.155-1.488.27-1.901.683-4.526 1.24-7.874.021-.165.063-.382.124-.651.083-.29.114-.537.093-.744Zm41.38-2.883c.144.145.217.33.217.558a.713.713 0 0 1-.124.403.608.608 0 0 1-.28.279 1.298 1.298 0 0 1-.216.062l-2.666.186c.144 1.55.217 2.873.217 3.968 0 .827-.052 1.777-.155 2.852-.248 2.025-.62 3.772-1.116 5.239-.496 1.447-1.302 2.738-2.418 3.875-.579.62-1.344 1.188-2.294 1.705a4.02 4.02 0 0 1-2.015.527c-.476 0-.992-.083-1.55-.248a9.771 9.771 0 0 0-.403-.124 9.771 9.771 0 0 0-.403-.124c-.951-.29-1.716-.558-2.294-.806a6.071 6.071 0 0 1-1.612-.992 7.58 7.58 0 0 1-1.612-1.767c-.331-.475-.496-.889-.496-1.24 0-.269.113-.517.34-.744.228-.248.6-.506 1.117-.775.702.95 1.24 1.664 1.612 2.139 1.054 1.385 2.304 2.046 3.75 1.984a4.43 4.43 0 0 0 1.148-.279c.372-.145.671-.33.899-.558 2.004-2.19 3.11-4.753 3.317-7.688l.062-.837c.02-.29.041-.64.062-1.054.02-.413.03-.899.03-1.457 0-.744-.051-1.56-.154-2.449a7.011 7.011 0 0 0-.124-.868l-1.178.062c-.145.083-.6.155-1.364.217-.744.062-1.53.114-2.356.155-.186.062-.486.041-.9-.062a7.383 7.383 0 0 1-1.24-.434 1.128 1.128 0 0 1-.495-.372 1.14 1.14 0 0 1-.155-.558c0-.248.093-.496.279-.744l.248-.372c.124-.207.258-.362.403-.465a.862.862 0 0 1 .434-.217c.454-.062.971-.134 1.55-.217a27.997 27.997 0 0 1 1.364-.217c1.55-.29 2.759-.434 3.627-.434.93 0 1.89.145 2.883.434.723.207 1.26.382 1.612.527.413.186.971.372 1.674.558.062.02.155.041.279.062.124 0 .217.031.279.093l.217.217Zm8.17 16.337c-.454 0-.837-.114-1.147-.341-.29-.227-.496-.651-.62-1.271.662.062 1.147-.083 1.457-.434.33-.351.63-.878.9-1.581l.65-1.86c.124-.33.434-1.199.93-2.604a67.817 67.817 0 0 1 1.581-3.937c.703-1.653 1.778-3.658 3.224-6.014.372-.579.816-1.013 1.333-1.302a3.143 3.143 0 0 1 1.643-.465c.517 0 1.013.134 1.488.403.496.248.93.62 1.302 1.116a8.9 8.9 0 0 1 .837 1.364c.248.475.558 1.116.93 1.922l.59 1.24c.144.33.258.785.34 1.364.103.95.527 1.54 1.271 1.767.103.041.217.145.341.31.124.145.227.269.31.372-.62.413-.93.961-.93 1.643 0 .372.093.889.28 1.55.247.889.495 1.891.743 3.007.269 1.095.445 1.84.527 2.232l.372 1.705c.02.083.031.196.031.341l-.03.837c-.187.062-.435.155-.745.279-.31.124-.568.186-.775.186-.558 0-1.178-.124-1.86-.372-.268-.083-.444-.217-.527-.403a2.61 2.61 0 0 1-.093-.744c0-.29-.01-.496-.03-.62l-.156-.868c-.682-3.74-1.085-5.818-1.209-6.231-.496.145-1.126.248-1.89.31-.91.124-1.54.238-1.892.341-.186.062-.506.093-.96.093l-1.272-.031c-.578 0-1.013.062-1.302.186-.165.083-.537.899-1.116 2.449-.434 1.116-.703 1.767-.806 1.953-.392.723-.91 1.26-1.55 1.612-.64.33-1.364.496-2.17.496Zm7.006-10.137a8.84 8.84 0 0 1 1.364-.093h1.116c.662 0 1.22-.031 1.674-.093a3.592 3.592 0 0 0 1.271-.465c-.165-.455-.537-1.24-1.116-2.356-.64-1.26-1.085-2.242-1.333-2.945a58.342 58.342 0 0 0-1.89 3.224 15.316 15.316 0 0 0-1.086 2.728Z" fill="#fff"/></svg>