<svg width="146" height="40" fill="none" xmlns="http://www.w3.org/2000/svg"><path d="M19.997 39.994c11.044 0 19.997-8.953 19.997-19.997S31.04 0 19.997 0 0 8.953 0 19.997s8.953 19.997 19.997 19.997Z" fill="#F5F5F5"/><path d="M33.27 11.615c-.627.78-.974.75-.974.75a6.612 6.612 0 0 1-1.008 1.773c-.325.39-.79.914-1.25 1.405-.483.515-.96 1-1.267 1.263a15.605 15.605 0 0 0-3.357 5.004.422.422 0 0 0 .107.379c.084.08.194.127.31.13a4.323 4.323 0 0 0-1.598 3.855c.182 1.112.427 1.238.427 1.238a8.398 8.398 0 0 0-5.283.806h-.002a27.251 27.251 0 0 0-8.67-1.781A5.955 5.955 0 0 0 8.514 23a8.64 8.64 0 0 1-2.544-9.423 12.562 12.562 0 0 1 7.656-7.05c2.25-.76 4.859-1.129 5.76-1.485l.228-.088h.002l.003-.001c.353-.14 1.01-.404 1.223-.528.296-.173.48-.06.588.27A6.608 6.608 0 0 0 25.29 7.71h.012c1.797.11 3.6.023 5.378-.26a2.863 2.863 0 0 1 2.527.797c.742.993.767 2.35.063 3.368h.002Z" fill="url(#a)"/><path style="mix-blend-mode:multiply" opacity=".83" d="M25.3 7.712c-1.164 3.207-7.413 1.141-8.198 4.502a1.986 1.986 0 0 1-.105-.04 3.584 3.584 0 0 1-.46-1.292 4.653 4.653 0 0 1 .656-2.826.05.05 0 0 0-.005-.053.05.05 0 0 0-.05-.018c-.164.025-.33.037-.497.036a7.155 7.155 0 0 1 2.974-3.067h.002l.003-.001c.353-.14 1.011-.404 1.223-.528.296-.173.48-.06.588.27A6.608 6.608 0 0 0 25.29 7.71h.011v.002Z" fill="url(#b)"/><path d="M11.448 15.514a2.597 2.597 0 0 1-.56-1.826c-.208.113-.41.238-.622.347a.049.049 0 0 1-.074-.043 6.738 6.738 0 0 1 .57-1.716 7.186 7.186 0 0 0-.823.184.048.048 0 0 1-.053-.017.048.048 0 0 1-.004-.055 5.604 5.604 0 0 1 2.9-2.045.781.781 0 0 0 .1-.432l-.002-.015c-.316-1.234-2.896-.185-4.106 1.252a5.463 5.463 0 0 0-1.099 4.685 3.472 3.472 0 0 0 2.91 2.956c.334.03.672.01 1-.06.248-.074.492-.162.73-.268a1.767 1.767 0 0 0 .872-2.052c-.632-.234-1.294-.306-1.739-.895Z" fill="url(#c)"/><path d="M25.3 7.712c-1.164 3.207-7.413 1.141-8.198 4.502a1.986 1.986 0 0 1-.105-.04 3.584 3.584 0 0 1-.46-1.292 4.653 4.653 0 0 1 .656-2.826.05.05 0 0 0-.005-.053.05.05 0 0 0-.05-.018c-.164.025-.33.037-.497.036a7.155 7.155 0 0 1 2.974-3.067h.002l.003-.001c.353-.14 1.011-.404 1.223-.528.296-.173.48-.06.588.27A6.608 6.608 0 0 0 25.29 7.71h.011v.002Z" fill="url(#d)"/><path d="M21.5 7.442c-1.18.133-1.676 2.404-2.387 2.886 1.27-.406 2.888-.479 4.175-.905.167-1.508-.762-2.098-1.789-1.981Z" fill="url(#e)"/><path d="M21.84 8.559c-.609.036-.936 1.152-1.31 1.439.74-.134 1.508-.243 2.214-.419v-.001a.818.818 0 0 0-.903-1.019Z" fill="url(#f)"/><path d="m24.665 27.413-.008-.002h.006l.002.002Z" fill="url(#g)"/><path d="M10.416 33.442h.002" stroke="url(#h)" stroke-width=".041"/><path d="M28.292 38.202v.003c-1.16.528-2.365.943-3.602 1.242-1.43.342-2.895.527-4.366.55h-.077l-.25.003a19.911 19.911 0 0 1-10.62-3.05 29.56 29.56 0 0 0 1.042-3.508c.014-.062.024-.123.035-.184.238-1.236.387-2.489.447-3.747h.015a25.439 25.439 0 0 1 11.316 3.866 31.361 31.361 0 0 1 6.053 4.82l.007.006v-.001Z" fill="url(#i)"/><path d="M28.293 38.202v.003c-1.16.528-2.365.943-3.602 1.242a23.67 23.67 0 0 0-14.272-6.005 26.654 26.654 0 0 0 .482-3.93h.016a25.44 25.44 0 0 1 11.315 3.865 31.361 31.361 0 0 1 6.053 4.82l.008.006v-.001Z" fill="url(#j)"/><path d="M25.521 22.189c.084.08.194.127.31.13a4.323 4.323 0 0 0-1.598 3.855c.182 1.112.427 1.238.427 1.238a8.399 8.399 0 0 0-5.283.806h-.001a27.251 27.251 0 0 0-8.672-1.781A5.954 5.954 0 0 0 8.515 23a8.644 8.644 0 0 1-2.562-9.368c-.59 6.776 3.757 7.998 8.17 7.561a8.794 8.794 0 0 1-.92.772c-.03.02-.034.08.012.09a6.27 6.27 0 0 0 3.517-.809c-.23.319-.49.614-.773.884a.049.049 0 0 0 .033.083 7.61 7.61 0 0 0 4.248-1.97l-.188.567a.047.047 0 0 0 .06.06 6.069 6.069 0 0 0 2.822-2.039 2.091 2.091 0 0 1 1.719-.897c.497.01.976.188 1.36.505l.833.698a8.646 8.646 0 0 0-1.432 2.673.423.423 0 0 0 .106.379h.001Z" fill="url(#k)"/><path d="M33.727 10.554c.16-1.157-1.287-1.316-2.307-1.652a.948.948 0 0 1-.07-.141 2.25 2.25 0 0 0-.144-.353.569.569 0 0 0-.338-.308 1.214 1.214 0 0 1-.4-.235c.03-.144.084-.283.159-.41l.126-.012c.9-.148 1.816.152 2.454.804.499.658.688 1.5.52 2.307Z" fill="url(#l)"/><path d="M31.82 36.124a19.955 19.955 0 0 1-3.535 2.073 31.363 31.363 0 0 0-6.055-4.82 7.476 7.476 0 0 1-.44-1.733 4.846 4.846 0 0 0-.7-2.19 4.824 4.824 0 0 0-1.715-1.236 8.399 8.399 0 0 1 5.283-.807 6.416 6.416 0 0 1 4.033 2.494 15.832 15.832 0 0 1 3.129 6.219Z" fill="url(#m)"/><path d="M22.23 33.378a25.439 25.439 0 0 0-11.315-3.867h-.009a15.816 15.816 0 0 0-.203-3.074 27.23 27.23 0 0 1 8.671 1.781c.658.28 1.243.702 1.716 1.235.405.665.646 1.415.7 2.191.076.593.225 1.177.44 1.734Z" fill="url(#n)"/><path d="M32.296 12.364a6.52 6.52 0 0 1-1.003 1.76c-.785.94-1.625 1.83-2.517 2.668a17.792 17.792 0 0 0-1.97 2.397c-6.14 2.462-7.653-2.097-7.629-2.45a13.183 13.183 0 0 1 2.242-2.465 3.14 3.14 0 0 1 1.98-.871c.996-.038 1.992.004 2.98.13.642.053 1.69.055 1.69.055a7.913 7.913 0 0 0 4.227-1.224Z" fill="url(#o)"/><path d="M54.185 15.989c-.52.214-1.065.36-1.623.435-.539.065-1.081.097-1.625.095a6.436 6.436 0 0 1-3.257-.742 4.642 4.642 0 0 1-1.91-2.047 6.71 6.71 0 0 1-.627-2.941c-.015-1 .188-1.992.595-2.908a4.866 4.866 0 0 1 1.761-2.069 5.109 5.109 0 0 1 2.887-.773c1.12-.07 2.22.303 3.066 1.038a3.763 3.763 0 0 1 1.093 2.866 5.808 5.808 0 0 1-1.315.106 8.228 8.228 0 0 1-1.295-.106A1.929 1.929 0 0 0 51.5 7.87a1.452 1.452 0 0 0-1.136-.393 1.811 1.811 0 0 0-1.591.86 4.407 4.407 0 0 0-.573 2.451c-.08.91.209 1.813.806 2.504a3.09 3.09 0 0 0 2.25.786c.383.006.767-.019 1.146-.075a7.85 7.85 0 0 0 1.188-.329c.182.311.325.643.425.987.121.432.179.88.17 1.327Zm11.327-8.092a4.652 4.652 0 0 0-1.74-2.07 6.099 6.099 0 0 0-5.911 0 4.633 4.633 0 0 0-1.75 2.07 7.239 7.239 0 0 0-.573 2.94 7.088 7.088 0 0 0 .573 2.907 4.573 4.573 0 0 0 1.75 2.048 6.174 6.174 0 0 0 5.912 0 4.596 4.596 0 0 0 1.739-2.047c.394-.918.59-1.91.574-2.909a7.238 7.238 0 0 0-.574-2.94Zm-3.002 5.475a1.828 1.828 0 0 1-1.708.88 1.808 1.808 0 0 1-1.688-.88 5.04 5.04 0 0 1-.52-2.536 5.04 5.04 0 0 1 .52-2.536 1.802 1.802 0 0 1 1.688-.88c.69-.054 1.35.287 1.708.88.391.787.57 1.66.519 2.536.05.876-.128 1.75-.519 2.536Zm8.118 2.893c-.997.17-2.016.17-3.013 0V5.292c.411-.088.83-.13 1.252-.127.212 0 .424.009.636.032.184.02.375.053.573.095.113.228.182.47.213.722.056.34.098.61.127.806a3.797 3.797 0 0 1 1.104-1.21 3.679 3.679 0 0 1 5.22 1.38 4.227 4.227 0 0 1 1.2-1.369 3.173 3.173 0 0 1 1.963-.584 3.424 3.424 0 0 1 2.748 1.031c.663.934.975 2.073.881 3.214v6.983c-.997.17-2.016.17-3.014 0v-6.198a4.3 4.3 0 0 0-.286-1.761 1.146 1.146 0 0 0-1.157-.616 2.279 2.279 0 0 0-.923.202 1.652 1.652 0 0 0-.764.775 3.63 3.63 0 0 0-.308 1.676v5.922c-.997.17-2.016.17-3.014 0v-6.198c.03-.6-.068-1.2-.286-1.761a1.146 1.146 0 0 0-1.157-.616c-.326 0-.649.073-.944.213a1.648 1.648 0 0 0-.754.818 4.207 4.207 0 0 0-.297 1.792v5.752Zm24.213-8.787a4.105 4.105 0 0 0-1.56-1.834 4.157 4.157 0 0 0-2.216-.607 3.175 3.175 0 0 0-1.954.574c-.464.333-.855.759-1.146 1.252a10.138 10.138 0 0 0-.202-1.125 1.837 1.837 0 0 0-.158-.446 5.755 5.755 0 0 0-1.21-.127c-.242 0-.456.007-.648.021a4.412 4.412 0 0 0-.582.085v14.91c.268.043.526.07.773.086.488.027.976.027 1.464 0 .249-.015.507-.044.775-.085v-3.769c.427.078.86.112 1.296.106a5.863 5.863 0 0 0 4.37-1.591 5.896 5.896 0 0 0 1.571-4.33 7.403 7.403 0 0 0-.573-3.12Zm-3.332 5.773a2.463 2.463 0 0 1-2.016.849 4.916 4.916 0 0 1-1.316-.17v-3.735a3.501 3.501 0 0 1 .447-1.815 1.605 1.605 0 0 1 1.507-.753 1.676 1.676 0 0 1 1.611.87c.334.68.495 1.431.467 2.186.07.911-.177 1.82-.7 2.568Zm12.77-7.152a5.139 5.139 0 0 0-3.448-1.062 11.491 11.491 0 0 0-3.608.616c-.008.394.042.788.148 1.167.114.361.264.71.446 1.04a7.65 7.65 0 0 1 2.441-.445 3.939 3.939 0 0 1 1.697.307c.461.273.713.796.637 1.327v.254c-.452-.04-.905-.062-1.358-.063-.57 0-1.14.06-1.698.182a5.078 5.078 0 0 0-1.55.592 3.065 3.065 0 0 0-1.549 2.813c-.04.77.176 1.53.616 2.164.44.558 1.04.966 1.719 1.168a8.187 8.187 0 0 0 2.547.36c.803.008 1.607-.063 2.398-.212a17.642 17.642 0 0 0 1.804-.446V9.494a4.238 4.238 0 0 0-1.242-3.396Zm-1.687 7.937c-.156.029-.339.06-.552.096-.21.035-.424.053-.636.053a6.07 6.07 0 0 1-.88-.075 1.804 1.804 0 0 1-.882-.381 1.25 1.25 0 0 1-.382-1.03 1.302 1.302 0 0 1 .605-1.197 3.123 3.123 0 0 1 1.645-.373c.364.003.726.037 1.082.106v2.801Zm7.807 2.25c-.253.042-.509.07-.765.085-.492.026-.984.026-1.475 0a7.886 7.886 0 0 1-.773-.085V5.292c.404-.087.817-.13 1.23-.127.208 0 .417.015.625.042.205.03.406.064.606.106.111.23.182.48.213.733.054.348.097.62.125.818a5.463 5.463 0 0 1 1.125-1.167 2.502 2.502 0 0 1 1.592-.53c.197 0 .382.005.552.02.156.013.312.034.467.063.03.162.051.324.063.488.016.185.022.376.022.573 0 .242-.011.503-.031.785-.02.271-.059.541-.118.807a2.93 2.93 0 0 0-.52-.043h-.349a4.376 4.376 0 0 0-.808.085c-.307.06-.598.193-.848.382a2.138 2.138 0 0 0-.667.945 4.82 4.82 0 0 0-.267 1.793v5.22h.001Zm12.763-2.696a8.02 8.02 0 0 1-2.823.531 3.707 3.707 0 0 1-2.005-.488 2.204 2.204 0 0 1-.966-1.57c.703.101 1.413.151 2.122.148a8.146 8.146 0 0 0 2.452-.349c.688-.2 1.307-.59 1.782-1.126a2.953 2.953 0 0 0 .669-2.006 3.343 3.343 0 0 0-1.188-2.683 4.898 4.898 0 0 0-3.269-1.01 5.701 5.701 0 0 0-3.056.775 4.99 4.99 0 0 0-1.9 2.112 6.933 6.933 0 0 0-.647 3.056 6.583 6.583 0 0 0 .594 2.835 4.396 4.396 0 0 0 1.868 1.983 6.72 6.72 0 0 0 3.332.721c.626 0 1.251-.053 1.868-.159a9.25 9.25 0 0 0 1.761-.477 5.222 5.222 0 0 0-.594-2.292Zm-4.978-5.592a2.454 2.454 0 0 1 1.708-.667c.443-.027.879.11 1.231.38a1.247 1.247 0 0 1 .446.998 1.205 1.205 0 0 1-.34.902 1.894 1.894 0 0 1-.87.467c-.36.093-.731.14-1.104.138-.645.006-1.29-.03-1.931-.106a3.12 3.12 0 0 1 .86-2.112Zm27.197 15.74h-.485l-.855 2.497h-.003l-.856-2.497h-.501a31.912 31.912 0 0 0-.231 3.15h.379c.013-.973.06-1.96.121-2.66h.003l.896 2.66h.295l.892-2.66h.006c.083.64.157 1.686.176 2.66h.409a33.877 33.877 0 0 0-.246-3.15Zm-5.442 0v.308h.819v2.843h.386v-2.841h.822v-.308h-2.025l-.002-.002ZM77.981 34.711c-.998.17-2.017.17-3.014 0V23.738a5.79 5.79 0 0 1 1.252-.127c.212 0 .425.01.637.032.183.021.374.053.573.095.11.228.182.47.212.722.056.34.099.61.127.806.275-.479.652-.891 1.104-1.21a3.68 3.68 0 0 1 5.22 1.38 4.24 4.24 0 0 1 1.198-1.369 3.173 3.173 0 0 1 1.965-.583 3.426 3.426 0 0 1 2.749 1.03c.662.934.973 2.073.879 3.214v6.983c-.997.17-2.015.17-3.012 0v-6.197c.028-.601-.07-1.201-.288-1.762a1.146 1.146 0 0 0-1.156-.615 2.293 2.293 0 0 0-.924.201 1.652 1.652 0 0 0-.763.775 3.625 3.625 0 0 0-.307 1.677v5.92c-.998.17-2.017.17-3.014 0v-6.196c.028-.601-.07-1.201-.288-1.762a1.146 1.146 0 0 0-1.155-.615 2.21 2.21 0 0 0-.945.212 1.648 1.648 0 0 0-.753.818 4.208 4.208 0 0 0-.297 1.792v5.752Zm22.372-10.166a5.145 5.145 0 0 0-3.449-1.061 11.498 11.498 0 0 0-3.608.615 4.05 4.05 0 0 0 .149 1.167c.114.361.264.71.446 1.04a7.645 7.645 0 0 1 2.44-.445 3.948 3.948 0 0 1 1.698.307c.462.273.713.796.637 1.327v.255c-.452-.041-.905-.062-1.358-.064-.57 0-1.14.06-1.698.182a5.116 5.116 0 0 0-1.55.593c-.46.269-.846.648-1.125 1.103a3.2 3.2 0 0 0-.424 1.709c-.04.77.176 1.53.615 2.164.44.558 1.04.966 1.72 1.168a8.193 8.193 0 0 0 2.546.36 12.37 12.37 0 0 0 2.399-.212c.609-.117 1.212-.265 1.804-.446V27.94a4.237 4.237 0 0 0-1.242-3.395Zm-1.687 7.937c-.156.03-.34.061-.552.096-.21.035-.425.053-.637.053a6.051 6.051 0 0 1-.879-.074 1.804 1.804 0 0 1-.882-.382 1.25 1.25 0 0 1-.382-1.03 1.3 1.3 0 0 1 .606-1.197 3.118 3.118 0 0 1 1.643-.373c.364.003.728.038 1.083.106v2.801Zm7.731 2.25c-.253.042-.508.07-.764.085-.491.026-.984.026-1.475 0a7.9 7.9 0 0 1-.775-.085V23.738c.405-.087.818-.13 1.231-.127.21 0 .419.015.626.042.205.03.407.066.605.107.112.23.184.479.213.732.056.348.098.62.127.818a5.422 5.422 0 0 1 1.125-1.167 2.5 2.5 0 0 1 1.591-.53c.198 0 .383.006.552.02.156.013.313.034.467.063.031.162.052.324.064.488.015.185.021.376.021.573 0 .243-.011.503-.032.785-.019.272-.058.541-.116.807a2.927 2.927 0 0 0-.52-.043h-.351a4.366 4.366 0 0 0-.806.085 2.077 2.077 0 0 0-.849.382 2.156 2.156 0 0 0-.669.945 4.838 4.838 0 0 0-.265 1.793v5.221Zm4.942-.021V20.597a8.79 8.79 0 0 1 2.993 0v8.256l3.119-5.115a11.151 11.151 0 0 1 3.375 0l-3.396 5.115 3.863 5.858c-.591.082-1.186.125-1.783.127a10.496 10.496 0 0 1-1.592-.127l-3.586-5.646v5.646a8.79 8.79 0 0 1-2.993 0Zm18.528-2.674a8.021 8.021 0 0 1-2.823.53 3.71 3.71 0 0 1-2.005-.488 2.205 2.205 0 0 1-.966-1.57c.704.101 1.413.151 2.122.148a8.149 8.149 0 0 0 2.452-.349c.689-.199 1.307-.59 1.783-1.126.462-.562.7-1.276.67-2.005a3.347 3.347 0 0 0-1.19-2.683 4.898 4.898 0 0 0-3.269-1.01 5.696 5.696 0 0 0-3.054.774 4.985 4.985 0 0 0-1.901 2.112 6.934 6.934 0 0 0-.648 3.056 6.583 6.583 0 0 0 .594 2.835 4.397 4.397 0 0 0 1.87 1.983 6.73 6.73 0 0 0 3.33.721c.626 0 1.251-.053 1.868-.159.601-.1 1.191-.26 1.761-.477a5.237 5.237 0 0 0-.594-2.292Zm-4.977-5.593a2.456 2.456 0 0 1 1.709-.667c.444-.027.88.11 1.232.38a1.249 1.249 0 0 1 .444.998 1.187 1.187 0 0 1-.339.902c-.244.23-.543.39-.869.467a4.37 4.37 0 0 1-1.105.138c-.645.006-1.29-.03-1.931-.106.01-.787.317-1.541.859-2.112Zm6.848-.414-.106-.424 3.968-5.072h.489v3.204h2.568c.074.363.11.733.106 1.104a5.85 5.85 0 0 1-.106 1.188h-2.57v4.309a2.442 2.442 0 0 0 .414 1.698c.33.288.761.433 1.198.403.212 0 .419-.017.627-.053l.541-.096c.099.273.17.554.213.839.059.386.077.777.053 1.167-.008.106-.019.21-.032.308-.326.07-.656.127-.987.17a8.128 8.128 0 0 1-1.031.063 4.313 4.313 0 0 1-2.948-.902 3.743 3.743 0 0 1-1.019-2.94V26.03h-1.38.002Zm-83.241-1.132v7.18a1.88 1.88 0 0 0 .238 1.058c.144.221.364.382.615.454.25.072.51.108.769.108a3.89 3.89 0 0 0 1.319-.194c.059.191.106.387.14.584.037.207.061.417.076.627a6.62 6.62 0 0 1-1.816.238 2.96 2.96 0 0 1-2-.66 2.695 2.695 0 0 1-.768-2.153v-7.242H45.19a2.052 2.052 0 0 1-.032-.282 4.993 4.993 0 0 1 0-.67 2.05 2.05 0 0 1 .03-.258h1.883v-2.077l1.342-1.319h.085v3.396h2.983c.017.084.027.172.034.258.02.318.009.636-.034.952h-2.985.002Zm6.499 9.85a7.012 7.012 0 0 1-.713.045 7.474 7.474 0 0 1-.714-.044V20.314c.118-.017.237-.027.356-.032.152-.006.27-.012.358-.012.071 0 .187.004.346.012.121.005.244.015.367.032v5.375c.218-.383.488-.735.8-1.049a4.09 4.09 0 0 1 1.22-.843 3.846 3.846 0 0 1 1.635-.336 3.35 3.35 0 0 1 2.8 1.137c.65.931.966 2.055.897 3.19v6.96a7.068 7.068 0 0 1-.712.045 7.44 7.44 0 0 1-.716-.044v-6.53a4.446 4.446 0 0 0-.606-2.637 2.062 2.062 0 0 0-1.751-.8 3.318 3.318 0 0 0-2.541 1.113 4.705 4.705 0 0 0-1.026 3.298v5.556Zm14.397-1.057a3.581 3.581 0 0 1-3.98-3.937c.463.057.939.112 1.428.163.511.05 1.022.076 1.536.076a6.536 6.536 0 0 0 3.46-.802 2.77 2.77 0 0 0 1.297-2.55 2.852 2.852 0 0 0-1.072-2.38 4.5 4.5 0 0 0-2.865-.843 5.344 5.344 0 0 0-2.713.692 4.788 4.788 0 0 0-1.88 2.022 7.09 7.09 0 0 0-.682 3.255 5.7 5.7 0 0 0 1.405 4.12 5.327 5.327 0 0 0 4.022 1.459 9.831 9.831 0 0 0 1.687-.152c.506-.08 1-.226 1.47-.432a3.738 3.738 0 0 0-.257-1.211 8.7 8.7 0 0 1-2.856.52ZM66.58 25.7a3.568 3.568 0 0 1 2.616-1.028 2.744 2.744 0 0 1 1.892.563c.41.375.637.914.615 1.47.028.46-.133.913-.442 1.255a2.439 2.439 0 0 1-1.2.637 7.2 7.2 0 0 1-1.71.183c-.518 0-1.036-.02-1.556-.063-.456-.037-.91-.088-1.363-.152a4.217 4.217 0 0 1 1.148-2.865Z" fill="#fff"/><defs><linearGradient id="a" x1="8.808" y1="22.018" x2="30.184" y2="5.91" gradientUnits="userSpaceOnUse"><stop stop-color="#39261D"/><stop offset=".659" stop-color="#E0B585"/><stop offset=".751" stop-color="#DDB283"/><stop offset=".825" stop-color="#D3A87B"/><stop offset=".893" stop-color="#C2986F"/><stop offset=".957" stop-color="#AA815D"/><stop offset=".999" stop-color="#966D4E"/></linearGradient><linearGradient id="b" x1="15.919" y1="8.279" x2="25.685" y2="8.279" gradientUnits="userSpaceOnUse"><stop stop-color="#fff"/><stop offset=".003" stop-color="#FEFDFD"/><stop offset=".11" stop-color="#D8CEC9"/><stop offset=".221" stop-color="#B6A59C"/><stop offset=".335" stop-color="#9A8175"/><stop offset=".452" stop-color="#836556"/><stop offset=".573" stop-color="#714E3D"/><stop offset=".7" stop-color="#643E2C"/><stop offset=".837" stop-color="#5C3521"/><stop offset="1" stop-color="#5A321E"/></linearGradient><linearGradient id="c" x1="9.494" y1="13.539" x2="12.147" y2="13.951" gradientUnits="userSpaceOnUse"><stop offset=".096" stop-color="#200D05" stop-opacity=".8"/><stop offset=".365" stop-color="#200D05" stop-opacity=".488"/><stop offset=".887" stop-color="#200D05" stop-opacity="0"/></linearGradient><linearGradient id="e" x1="19.113" y1="8.878" x2="23.308" y2="8.878" gradientUnits="userSpaceOnUse"><stop offset=".001" stop-color="#5A321E" stop-opacity="0"/><stop offset=".032" stop-color="#58301D" stop-opacity=".042"/><stop offset=".63" stop-color="#30160B" stop-opacity=".742"/><stop offset="1" stop-color="#220C05"/></linearGradient><linearGradient id="f" x1="20.529" y1="9.277" x2="22.754" y2="9.277" gradientUnits="userSpaceOnUse"><stop offset=".002" stop-color="#25130E" stop-opacity="0"/><stop offset=".103" stop-color="#25130E" stop-opacity=".247"/><stop offset=".343" stop-color="#25130E" stop-opacity=".671"/><stop offset=".617" stop-color="#25130E" stop-opacity=".922"/><stop offset=".999" stop-color="#25130E"/></linearGradient><linearGradient id="g" x1="24.661" y1="27.412" x2="24.661" y2="27.412" gradientUnits="userSpaceOnUse"><stop offset=".004" stop-color="#FFB503"/><stop offset=".868" stop-color="#FFD719"/></linearGradient><linearGradient id="h" x1="nan" y1="nan" x2="nan" y2="nan" gradientUnits="userSpaceOnUse"><stop stop-color="#641724"/><stop offset=".101" stop-color="#711825"/><stop offset=".286" stop-color="#941B26"/><stop offset=".433" stop-color="#B31E28"/><stop offset="1" stop-color="#B31E28"/></linearGradient><linearGradient id="i" x1="8.996" y1="34.487" x2="38.248" y2="38.806" gradientUnits="userSpaceOnUse"><stop offset=".004" stop-color="#641724"/><stop offset=".104" stop-color="#711825"/><stop offset=".288" stop-color="#941B26"/><stop offset=".433" stop-color="#B31E28"/></linearGradient><linearGradient id="j" x1="10.419" y1="34.479" x2="35.746" y2="34.479" gradientUnits="userSpaceOnUse"><stop stop-color="#5B0D14"/><stop offset=".461" stop-color="#94171F"/><stop offset=".705" stop-color="#AD1B24"/></linearGradient><linearGradient id="k" x1="23.286" y1="17.488" x2="12.379" y2="27.009" gradientUnits="userSpaceOnUse"><stop stop-color="#E0B58B" stop-opacity="0"/><stop offset=".075" stop-color="#CDA57E" stop-opacity=".14"/><stop offset=".43" stop-color="#7B5D45" stop-opacity=".759"/><stop offset=".602" stop-color="#5B412F"/><stop offset=".623" stop-color="#573D2D"/><stop offset=".802" stop-color="#38241B"/><stop offset=".902" stop-color="#2C1A14"/><stop offset=".946" stop-color="#20100C"/><stop offset=".994" stop-color="#170906"/></linearGradient><linearGradient id="l" x1="30.692" y1="9.745" x2="33.862" y2="7.981" gradientUnits="userSpaceOnUse"><stop offset=".138" stop-color="#502414" stop-opacity="0"/><stop offset=".448" stop-color="#502414" stop-opacity=".425"/><stop offset=".804" stop-color="#502414" stop-opacity=".842"/><stop offset=".999" stop-color="#502414"/></linearGradient><linearGradient id="m" x1="19.375" y1="32.743" x2="33.482" y2="32.743" gradientUnits="userSpaceOnUse"><stop offset=".001" stop-color="#FFB503"/><stop offset=".868" stop-color="#FFD719"/></linearGradient><linearGradient id="n" x1="10.703" y1="29.907" x2="22.23" y2="29.907" gradientUnits="userSpaceOnUse"><stop offset=".004" stop-color="#FFB503"/><stop offset=".868" stop-color="#FFD719"/></linearGradient><radialGradient id="d" cx="0" cy="0" r="1" gradientUnits="userSpaceOnUse" gradientTransform="matrix(7.37958 .0098 -.0098 7.37847 22.117 9.602)"><stop stop-color="#623C29"/><stop offset=".2" stop-color="#623C29" stop-opacity=".776"/><stop offset=".739" stop-color="#623C29" stop-opacity=".217"/><stop offset="1" stop-color="#623C29" stop-opacity="0"/></radialGradient><radialGradient id="o" cx="0" cy="0" r="1" gradientUnits="userSpaceOnUse" gradientTransform="matrix(11.9112 -4.026 3.74992 11.0944 19.711 4.323)"><stop offset=".208" stop-color="#5B3622"/><stop offset=".481" stop-color="#5E3925" stop-opacity=".974"/><stop offset=".628" stop-color="#6A452E" stop-opacity=".887"/><stop offset=".744" stop-color="#7F583E" stop-opacity=".738"/><stop offset=".845" stop-color="#9B7455" stop-opacity=".526"/><stop offset=".934" stop-color="#C09772" stop-opacity=".255"/><stop offset=".999" stop-color="#E3B88D" stop-opacity="0"/></radialGradient></defs></svg>