<svg width="132" height="24" fill="none" xmlns="http://www.w3.org/2000/svg"><g clip-path="url(#a)" fill="#fff"><path d="M0 23.436h14.768v-3.313H3.37v-6.627h10.755v-3.314H3.37V3.555h11.396V.242H0v23.194ZM34.936 6.524c-3.753 0-5.382 2.326-5.382 2.326h-.163s-1.145-2.326-4.406-2.326c-2.617 0-4.247 1.99-4.247 1.99h-.163l-.326-1.658h-2.94v16.58h3.264V12.99c0-1.99 1.631-3.482 3.59-3.482 1.957 0 3.264 1.326 3.264 3.482v10.446h3.263V12.99c0-1.99 1.633-3.482 3.591-3.482 1.958 0 3.264 1.326 3.264 3.482v10.446h3.264V12.957c0-3.78-2.448-6.434-5.873-6.434ZM46.208 7.007h-3.335v16.268h3.335V7.007ZM46.367.08h-3.652v3.544h3.652V.081ZM53.133 2.336h-3.23v4.58H47.32v3.109h2.584v9.815c0 2.127 1.292 3.435 3.552 3.435h3.391v-2.944h-2.745c-.646 0-.969-.327-.969-.981v-9.325h3.714V6.916h-3.714v-4.58ZM75.778 19.046h-.647l-3.173-12.04H67.62l-3.173 12.04H63.8l-3.076-12.04h-3.4l4.371 16.27h4.694l3.076-11.714h.647l3.076 11.713h4.695l4.37-16.268h-3.4l-3.075 12.039ZM86.7 7.007h-3.335v16.268h3.334V7.007ZM86.7.08h-3.653v3.544H86.7V.081ZM97.02 13.883l-2.96-.502c-1.48-.3-2.467-1.003-2.467-2.007 0-1.003.986-2.007 3.29-2.007 2.465 0 3.453 1.338 3.453 2.342h3.288c0-1.84-1.973-5.185-6.742-5.185-4.44 0-6.576 2.174-6.576 4.85 0 2.844 1.645 4.316 4.77 4.851l2.959.502c1.81.3 2.467 1.004 2.467 2.175 0 1.003-.987 2.175-3.454 2.175-2.63 0-3.782-1.506-3.782-2.51H87.97c0 1.84 1.809 5.352 7.071 5.352 4.605 0 6.743-2.347 6.743-5.017.005-2.844-1.64-4.483-4.765-5.019Z"/><path fill-rule="evenodd" clip-rule="evenodd" d="M102.261 15.222c0-5.186 3.402-8.698 8.102-8.698 4.374 0 7.777 3.512 7.777 8.201a7.825 7.825 0 0 1-.163 1.673h-12.475c.324 2.843 2.268 4.683 4.861 4.683 1.944 0 3.402-1.173 3.888-2.347h3.402c-.81 2.175-3.084 5.185-7.29 5.185-4.7 0-8.102-3.512-8.102-8.697Zm8.102-5.855c-2.75 0-4.376 1.84-4.861 4.516h9.559c-.324-2.675-2.106-4.516-4.698-4.516Z"/><path d="M120.871 5.988a4.932 4.932 0 0 1 1.144-3.143.408.408 0 0 0-.25-.665.415.415 0 0 0-.387.143 5.73 5.73 0 0 0-1.212 4.84.416.416 0 0 0 .679.223.406.406 0 0 0 .13-.389 4.958 4.958 0 0 1-.104-1.009ZM123.806 1.645a5.101 5.101 0 0 1 4.359.16.416.416 0 0 0 .601-.266.412.412 0 0 0-.211-.467 5.941 5.941 0 0 0-5.083-.186.413.413 0 0 0-.081.713.42.42 0 0 0 .415.046ZM129.474 9.563c-.991 1.141-2.398 1.764-3.852 1.708-1.455-.057-2.815-.789-3.726-2.005a.402.402 0 0 0-.387-.16.423.423 0 0 0-.324.279.469.469 0 0 0 .064.439c1.107 1.48 2.784 2.341 4.556 2.337 1.622-.002 3.17-.724 4.277-1.994.11-.115.152-.285.11-.443a.43.43 0 0 0-.313-.312.401.401 0 0 0-.405.148v.003ZM130.446 2.652a.396.396 0 0 0-.546-.08.411.411 0 0 0-.106.549 4.973 4.973 0 0 1 .7 4.174.408.408 0 0 0 .386.517.4.4 0 0 0 .383-.294 5.795 5.795 0 0 0-.816-4.866h-.001Z"/><path fill-rule="evenodd" clip-rule="evenodd" d="M129.142 7.508a3.573 3.573 0 0 1-3.302 2.237c-1.971-.003-3.569-1.623-3.571-3.623a3.623 3.623 0 0 1 2.205-3.35 3.536 3.536 0 0 1 3.894.786 3.663 3.663 0 0 1 .774 3.95Zm-.767-2.45a2.742 2.742 0 0 0-2.535-1.716v-.007c-1.516.003-2.744 1.251-2.742 2.79 0 1.125.669 2.14 1.694 2.57a2.714 2.714 0 0 0 2.989-.604 2.81 2.81 0 0 0 .594-3.032Z"/></g><defs><clipPath id="a"><path fill="#fff" d="M0 0h131.478v24H0z"/></clipPath></defs></svg>